<?xml version="1.0" encoding="UTF-8" standalone="no"?>
<!-- Created with Inkscape (http://www.inkscape.org/) -->

<svg
   xmlns:dc="http://purl.org/dc/elements/1.1/"
   xmlns:cc="http://creativecommons.org/ns#"
   xmlns:rdf="http://www.w3.org/1999/02/22-rdf-syntax-ns#"
   xmlns:svg="http://www.w3.org/2000/svg"
   xmlns="http://www.w3.org/2000/svg"
   xmlns:sodipodi="http://sodipodi.sourceforge.net/DTD/sodipodi-0.dtd"
   xmlns:inkscape="http://www.inkscape.org/namespaces/inkscape"
   width="325"
   height="324"
   id="svg2"
   version="1.1"
   inkscape:version="0.48.4 r9939"
   sodipodi:docname="Documento nuevo 1">
  <defs
     id="defs4" />
  <sodipodi:namedview
     id="base"
     pagecolor="#ffffff"
     bordercolor="#666666"
     borderopacity="1.0"
     inkscape:pageopacity="0.0"
     inkscape:pageshadow="2"
     inkscape:zoom="1"
     inkscape:cx="255.03846"
     inkscape:cy="145.67997"
     inkscape:document-units="px"
     inkscape:current-layer="layer1"
     showgrid="false"
     inkscape:window-width="1920"
     inkscape:window-height="1017"
     inkscape:window-x="-8"
     inkscape:window-y="-8"
     inkscape:window-maximized="1" />
  <metadata
     id="metadata7">
    <rdf:RDF>
      <cc:Work
         rdf:about="">
        <dc:format>image/svg+xml</dc:format>
        <dc:type
           rdf:resource="http://purl.org/dc/dcmitype/StillImage" />
        <dc:title></dc:title>
      </cc:Work>
    </rdf:RDF>
  </metadata>
  <g
     inkscape:label="Capa 1"
     inkscape:groupmode="layer"
     id="layer1"
     transform="translate(0,-728.36218)">
    <g
       id="g3007"
       transform="translate(-4,1)">
      <path
         style="fill:#c8f1b7"
         d="m 141.5,1040.884 c -22.70984,-3.3638 -43.413328,-11.3763 -62.995702,-24.3802 l -8.495702,-5.6416 -14.03842,-14.00002 -14.038421,-14 -4.919627,-7.5 c -2.705794,-4.125 -7.275211,-12 -10.15426,-17.5 l -5.234634,-10 -3.001631,-9 c -1.650897,-4.95 -3.96301,-13.725 -5.13803,-19.5 l -2.136399,-10.5 -0.551462,-10.5 -0.551462,-10.5 1.139717,-13.5 1.139717,-13.5 2.450366,-9.62883 c 2.938558,-11.54721 7.09337,-22.26327 13.279247,-34.24973 l 4.581975,-8.87855 5.406899,-7.5361 C 52.566802,780.60342 71.646011,763.61318 91,753.58758 c 7.04486,-3.64933 10.72573,-5.19369 23.40326,-9.81916 l 9.40327,-3.43084 10.09673,-2.17145 10.09674,-2.17146 19.5,-0.0662 19.5,-0.0662 11,2.3609 11,2.3609 9.23406,3.34006 c 10.23559,3.70233 21.01091,8.84867 32.06635,15.31503 l 7.30042,4.27004 8.78007,7.30766 8.78007,7.30765 5.82408,6.59274 c 11.80588,13.36402 24.88474,34.35991 30.52025,48.99511 3.57935,9.29543 7.60374,25.76984 8.94642,36.62351 l 1.04828,8.47375 -0.003,10.02625 -0.003,10.02622 -1.0957,9 -1.09569,9 -2.87602,11.42115 -2.87602,11.42115 -6.42781,13.23991 -6.4278,13.23991 -4.30386,6.33894 c -2.36712,3.48642 -7.1853,10.07242 -10.70706,14.63554 l -6.40321,8.29659 -8.6406,7.49142 c -4.75233,4.1203 -12.4656,10.1174 -17.1406,13.3267 l -8.5,5.8352 -9,4.4959 -9,4.4958 -9,3.0032 -9,3.0033 -9.5,1.6702 c -5.225,0.9186 -11.93755,2.101 -14.91678,2.6276 l -5.41641,0.9575 -12.58322,-0.1096 L 150,1042.143 l -8.5,-1.2591 z m 45.83763,-36.9594 c 4.03569,-0.8645 10.78569,-2.7268 15,-4.13847 l 7.66237,-2.5667 9.64837,-5.03937 9.64837,-5.03937 8.5419,-6.87425 8.5419,-6.87425 6.21394,-7.21985 c 14.40661,-16.73877 23.6375,-36.15342 27.42981,-57.69115 l 1.47571,-8.38099 0,-11.73802 0,-11.73802 -1.46987,-8.38099 -1.46988,-8.38099 -2.88665,-8.5 c -5.44735,-16.04016 -13.01094,-29.01662 -24.77509,-42.50534 l -6.46087,-7.40801 -8.71882,-6.60374 -8.71882,-6.60374 -11,-5.41326 -11,-5.41326 -9.5,-2.52646 -9.5,-2.52645 -11.44347,-1.12243 -11.44347,-1.12244 -10.55653,1.23965 -10.55653,1.23965 -8.5,2.43976 c -4.675,1.34187 -12.43331,4.1699 -17.2407,6.28451 l -8.74069,3.84476 -8.550481,5.68929 -8.550479,5.68929 -6.131305,5.65911 c -12.345437,11.39467 -22.753238,26.52336 -29.132169,42.34629 l -3.396485,8.42497 -2.325749,9.44393 -2.325749,9.44392 -0.04126,16.5 -0.04126,16.5 1.302042,6 c 0.716123,3.3 2.461963,9.6 3.879645,14 l 2.577603,8 3.993367,8 c 5.051316,10.11941 10.145487,17.62657 18.325157,27.00534 l 6.460871,7.40801 8.718818,6.60374 8.718814,6.60374 11,5.40247 11,5.40246 8.95518,2.56416 c 4.92535,1.4103 11.90035,2.9765 15.5,3.4805 l 6.54482,0.9164 13,-0.3763 13,-0.3763 7.33763,-1.5718 z"
         id="path3017"
         inkscape:connector-curvature="0" />
      <path
         style="fill:#a3e291"
         d="m 148.5,1041.3508 c -10.71227,-1.0451 -23.09897,-3.714 -33.5,-7.2182 l -9,-3.0322 -9,-4.4762 c -9.204877,-4.578 -23.252378,-13.4476 -27.208559,-17.1794 l -2.208558,-2.0833 2.30441,-4.7497 c 1.267426,-2.61228 3.419444,-7.18496 4.782263,-10.1615 l 2.477853,-5.41187 -4.055624,-3.58813 c -2.230593,-1.97346 -5.788354,-5.16312 -7.906136,-7.08812 -2.117782,-1.925 -4.971732,-4.175 -6.342112,-5 l -2.4916,-1.5 -6.334139,6.6622 -6.334138,6.6622 -1.998634,-2.1622 c -3.234647,-3.49937 -12.958994,-20.06146 -17.71358,-30.16901 l -4.404439,-9.36319 -2.495155,-8.87445 C 13.697142,920.615 11.774946,909.0625 10.932498,895.71989 l -0.70352,-11.1423 1.885511,-0.99511 c 1.037031,-0.54731 5.164723,-1.59652 9.172648,-2.33158 l 7.287137,-1.33647 0.480514,-2.02612 0.480515,-2.02613 -0.805811,-4.5 -0.80581,-4.5 -2.461841,0.29771 c -1.354013,0.16375 -3.586841,0.68967 -4.961841,1.16872 -1.375,0.47905 -3.7375,1.14115 -5.25,1.47134 l -2.75,0.60033 0,-3.48032 c 0,-4.97906 3.558227,-19.63548 7.175916,-29.55778 4.279328,-11.73698 10.490899,-23.87011 17.942462,-35.0472 l 6.302013,-9.4528 L 55.960196,780.80823 68,768.75427 l 6.5,-4.54523 c 7.573384,-5.29581 22.229016,-13.84686 23.732121,-13.84686 l 1.035592,0 2.044657,5.25 c 1.12457,2.8875 2.62069,7.05 3.32472,9.25 1.33848,4.18258 2.67303,6.50321 3.73535,6.49537 0.34516,-0.002 1.97756,-1.24004 3.62756,-2.75 1.65,-1.50995 4.64855,-3.97606 6.66344,-5.48024 2.01489,-1.50418 4.3553,-3.42673 5.2009,-4.27233 l 1.53746,-1.53746 -4.57869,-6.54988 -4.57869,-6.54988 0.87779,-0.85487 c 1.10589,-1.07702 14.51861,-4.42655 24.37779,-6.08782 l 7.5,-1.26374 16,-0.0119 16,-0.0119 8.5,1.7983 c 10.35252,2.19023 25.21133,6.41543 26.28671,7.47479 l 0.78672,0.775 -2.18253,4.0889 -2.18253,4.0889 1.39581,1.3573 c 0.7677,0.74651 2.97082,2.44581 4.89582,3.7762 1.925,1.3304 3.725,2.66673 4,2.96962 0.275,0.30289 3.14077,2.55789 6.36837,5.01111 l 5.86837,4.4604 1.99282,-2.46293 c 1.09605,-1.35461 3.5471,-4.18418 5.44679,-6.28793 l 3.45397,-3.82501 6.68484,4.28165 6.68484,4.28165 12.25,12.2261 c 6.7375,6.72436 12.25,12.64886 12.25,13.16556 l 0,0.93944 -3.75,0.60328 -3.75,0.60328 -2.26673,1.59295 -2.26673,1.59295 0.5917,0.95739 c 0.32543,0.52657 5.93961,4.99578 12.47594,9.93158 l 11.88424,8.97419 1.49864,0 1.49863,0 2.61519,4.46249 c 1.43836,2.45437 3.95288,7.93639 5.58782,12.18228 l 2.97263,7.71979 -0.29567,1.95549 -0.29566,1.95549 -5.75094,1.81576 c -3.16301,0.99866 -7.21301,2.45891 -9,3.24498 -1.78698,0.78608 -4.60548,1.94265 -6.26333,2.57015 l -3.01428,1.14093 -2.32004,5.98322 -2.32005,5.98323 -0.91568,-0.56592 -0.91568,-0.56592 0,-2.06434 c 0,-1.13538 -1.54898,-6.69338 -3.44217,-12.35112 l -3.44218,-10.28678 -3.46078,-6.83986 c -4.55168,-8.9959 -9.85055,-16.67337 -18.26904,-26.46978 L 244,800.21939 l -8,-6.06125 -8,-6.06124 -11,-5.31653 -11,-5.31653 -8.5,-2.44509 -8.5,-2.44509 -9,-1.10293 -9,-1.10292 -9.5,-0.002 -9.5,-0.002 -7,1.38408 c -15.68707,3.10174 -34.20393,10.5614 -46.350876,18.67282 l -6.147286,4.105 -3.367333,-2.08112 -3.367333,-2.08113 -2.883586,2.24631 c -1.585972,1.23539 -3.558586,2.79291 -4.383586,3.46106 -0.825,0.66816 -12.075,9.36878 -25,19.33471 -12.925,9.96593 -24.24164,18.97618 -25.148088,20.02278 l -1.648089,1.90292 0.798192,3.53907 0.798191,3.53908 -0.513287,1.96281 -0.513286,1.96281 3.382882,3.26319 c 1.860586,1.79475 4.928868,4.58643 6.818404,6.20375 l 3.435521,2.94056 3.514259,-0.23667 3.514258,-0.23667 0.765209,-1.2039 0.765208,-1.20389 -0.0044,1.5 c -0.0024,0.825 -0.654809,5.1 -1.4498,9.5 l -1.445437,8 -0.03489,12.75 -0.03485,12.75 -6.649743,0 -6.649742,0 0.679108,8.75 c 1.651507,21.2789 2.43181,29.13588 2.981998,30.0261 l 0.589811,0.95433 8.248439,-2.91889 c 4.536641,-1.60539 8.504553,-3.33329 8.817583,-3.83978 l 0.569144,-0.9209 3.590514,7.22457 3.590513,7.22457 5.866188,8.17591 c 11.622678,16.19894 23.755268,27.1697 39.11584,35.37006 l 6.24965,3.33643 -0.77154,0.5588 c -0.42434,0.30734 -2.0001,3.4515 -3.50169,6.98702 l -2.73015,6.4282 4.73965,4.4138 c 2.6068,2.4276 5.42022,4.7521 6.25204,5.1656 l 1.51239,0.7519 13.5,-1.836 c 7.425,-1.0098 16.65,-2.2429 20.5,-2.7401 3.85,-0.4973 7.71086,-1.1945 8.57969,-1.5495 l 1.57969,-0.6454 1.30714,-3.3314 1.30714,-3.3314 9.41929,-0.6914 9.41929,-0.6914 10.4544,-2.9356 c 5.74993,-1.6145 10.94972,-2.93552 11.5551,-2.93552 0.60539,0 3.25239,1.80152 5.88223,4.00332 l 4.78153,4.0033 2.90248,-0.3177 c 1.59636,-0.1748 3.36496,-0.6036 3.93022,-0.9529 0.56526,-0.3494 2.79229,-5.0454 4.94896,-10.43563 l 3.92122,-9.80039 9.90441,-9.5 9.9044,-9.5 5.62889,-7.53649 5.62889,-7.53649 4.12342,-7.96351 c 2.26788,-4.37993 5.52582,-11.95898 7.23986,-16.84233 l 3.11644,-8.87883 1.48266,-8.50216 c 0.81546,-4.6762 1.48265,-10.24322 1.48265,-12.37118 l 0,-3.86901 5.75,-0.15844 c 3.1625,-0.0871 6.49253,-0.10042 7.40006,-0.0295 l 1.65005,0.12894 1.51509,-3.2205 c 0.8333,-1.77127 3.16927,-7.4955 5.19105,-12.7205 2.02178,-5.225 4.02476,-10.4 4.45106,-11.5 0.42631,-1.1 1.25702,-3.125 1.84604,-4.5 0.58902,-1.375 1.35456,-3.5125 1.70119,-4.75 l 0.63024,-2.25 0.8242,0 0.8242,0 0.5328,2.25 c 0.29303,1.2375 1.09552,5.85 1.78331,10.25 l 1.25052,8 0.016,13.5 0.016,13.5 -1.2801,9 c -1.88666,13.26451 -7.64392,34.19154 -10.14707,36.88347 l -0.8215,0.88346 -6.10576,-4.38346 c -3.35816,-2.41091 -8.06891,-5.83283 -10.46831,-7.60428 l -4.36256,-3.22081 -0.93472,1.22081 c -0.5141,0.67145 -1.86506,3.69581 -3.00214,6.72081 -2.54262,6.76423 -6.8526,17.94451 -9.29549,24.11295 l -1.82687,4.61295 4.43139,6.60565 c 2.43727,3.63311 4.43139,7.06978 4.43139,7.63705 0,0.56727 0.40186,1.0314 0.89301,1.0314 0.49116,0 1.16346,0.70479 1.49402,1.56619 l 0.601,1.56619 -5.24402,5.56135 c -2.88427,3.05875 -9.96908,9.36789 -15.74408,14.02029 l -10.5,8.4589 -9,5.3092 c -4.95,2.9201 -10.8,6.077 -13,7.0155 -6.45026,2.7514 -20.73138,7.5024 -22.55173,7.5024 l -1.67655,0 -1.7364,-4.75 c -0.95501,-2.6125 -3.01497,-8.125 -4.57768,-12.25 l -2.8413,-7.5 -5.80817,0.2614 c -3.19449,0.1438 -6.36303,0.4643 -7.0412,0.7121 l -1.23303,0.4507 0.6314,13.8799 0.63139,13.8799 -6.29505,0.658 c -7.39326,0.7728 -15.60132,0.6612 -26.00168,-0.3534 z m -1.72917,-35.5928 0.60417,-0.6042 1.3125,0.5253 1.3125,0.5252 -1.91667,0.079 -1.91666,0.079 0.60416,-0.6042 z M 52.578947,929.94551 52.5,928.02885 l 0.604167,0.60416 0.604166,0.60417 -0.525219,1.3125 -0.525219,1.3125 -0.07895,-1.91667 z m -2,-6 -0.07895,-1.91666 0.604167,0.60416 0.604166,0.60417 -0.525219,1.3125 -0.525219,1.3125 -0.07895,-1.91667 z m -2,-7 -0.07895,-1.91666 0.604167,0.60416 0.604166,0.60417 -0.525219,1.3125 -0.525219,1.3125 -0.07895,-1.91667 z m -1.921052,-10.58333 0,-2.5 0.504386,1.25 0.504386,1.25 -0.504386,1.25 -0.504386,1.25 0,-2.5 z"
         id="path3015"
         inkscape:connector-curvature="0" />
      <path
         style="fill:#64da6c"
         d="m 138.04558,1039.7469 c -11.54686,-2.0844 -18.8371,-4.106 -29.43801,-8.1632 l -9.392428,-3.5948 -0.474202,-1.8134 -0.474203,-1.8133 -2.649238,0 -2.649239,0 -6.870186,-4.0147 c -3.778602,-2.2081 -9.05896,-5.6214 -11.73413,-7.5852 L 69.5,1009.1918 l 0,-1.3152 c 0,-0.7234 1.826425,-5.2874 4.058722,-10.14213 l 4.058722,-8.82684 1.191278,-0.73734 L 80,987.43295 l 4.5,4.27826 c 2.475,2.35304 7.65,7.02577 11.5,10.38379 3.85,3.3581 9.475,8.4359 12.5,11.2839 3.025,2.8481 6.4,5.7615 7.5,6.4744 l 2,1.296 14,-1.8358 c 7.7,-1.0097 17.81624,-2.4243 22.48053,-3.1436 l 8.48053,-1.3079 2.3444,-4.2499 2.34439,-4.2499 4.90602,0 4.90603,0 0.46862,2.25 c 0.25774,1.2375 0.76122,8.7207 1.11885,16.6293 l 0.65022,14.3793 -1.3498,0.8554 -1.34979,0.8553 -15.5,-0.074 -15.5,-0.074 -7.95442,-1.4359 z m 64.41888,-7.9676 c -1.08045,-2.5206 -1.96446,-4.918 -1.96446,-5.3276 0,-1.0357 -4.80116,-13.1663 -6.14305,-15.5211 -0.6054,-1.0624 -1.4482,-3.1432 -1.87288,-4.624 l -0.77215,-2.6923 7.10593,-2.0729 7.10593,-2.07289 4.37427,3.69679 c 2.40585,2.0333 5.27338,4.2073 6.37229,4.8311 1.09892,0.6238 2.50015,1.6363 3.11384,2.25 0.6137,0.6137 1.66662,1.1158 2.33982,1.1158 l 1.22401,0 2.49889,-5.25 c 2.9245,-6.14421 4.8217,-10.53421 7.23874,-16.75002 l 1.74984,-4.5 10.71028,-10.5 10.71028,-10.5 5.68402,-8.74852 c 5.81569,-8.95116 10.51232,-18.39968 13.52815,-27.21544 l 1.69814,-4.96396 4.85586,-1.03604 4.85585,-1.03604 4.87986,-12.5 c 2.68392,-6.875 5.90515,-14.75 7.15829,-17.5 1.25315,-2.75 3.74003,-8.825 5.5264,-13.5 1.78637,-4.675 3.62533,-9.4 4.08657,-10.5 0.46124,-1.1 1.41114,-3.69407 2.11089,-5.76461 l 1.27227,-3.76461 1.04383,0.34404 1.04383,0.34404 1.16442,9.42057 1.16443,9.42057 0.0856,11.02986 0.0856,11.02986 -1.48461,11.97014 -1.48461,11.97014 -2.47872,8.54013 c -2.68904,9.26454 -5.25861,15.95987 -6.12521,15.95987 -0.30045,0 -5.23208,-3.375 -10.95918,-7.5 -5.72709,-4.125 -10.8141,-7.5 -11.30445,-7.5 l -0.89155,0 -1.71353,4.75 c -0.94244,2.6125 -2.09053,5.65 -2.55131,6.75 -0.46078,1.1 -2.93053,7.4 -5.48832,14 l -4.65053,12 6.13106,9.19416 6.13105,9.19416 -0.98888,1.84773 c -0.54388,1.01625 -3.22177,3.93634 -5.95088,6.4891 l -4.96201,4.64137 -3.36418,0.5527 c -1.85031,0.304 -4.65227,0.6715 -6.22659,0.8167 l -2.86239,0.2641 -2.49177,6.2458 -2.49177,6.2458 -8.14584,4.887 c -4.48021,2.6879 -9.96176,5.7997 -12.18123,6.9151 -3.45274,1.7352 -23.81947,9.2063 -25.09692,9.2063 -0.24131,0 -1.32276,-2.0623 -2.40322,-4.5829 z M 68.535922,978.39381 c -4.977058,-4.3826 -9.83371,-8.37452 -10.792559,-8.87092 L 56,968.62033 l -6,6.78905 c -3.3,3.73398 -6.331115,6.8259 -6.735812,6.87093 -0.404696,0.045 -1.979696,-1.79666 -3.5,-4.09264 L 37,974.01315 l -0.351997,-8.89243 -0.351997,-8.89243 2.101997,-0.54969 C 41.121674,954.96635 41.047726,954.19909 38,951.54913 l -2.5,-2.17372 0,-2.50662 0,-2.50661 -0.730674,0 c -0.40187,0 -3.129546,0.99428 -6.061502,2.2095 l -5.330828,2.20951 -0.942085,-1.45951 c -1.617034,-2.50515 -5.639318,-16.00017 -8.035467,-26.9595 l -2.295721,-10.5 -0.05186,-12.42991 L 12,885.00235 l 5.5,-1.37508 c 3.025,-0.75629 7.1875,-1.81768 9.25,-2.35863 l 3.75,-0.98355 -0.01531,-6.21145 -0.01531,-6.21146 -0.895621,-1.4149 -0.895621,-1.41491 -5.339066,1.63042 C 20.40258,867.55953 16.7625,868.58252 15.25,868.93611 l -2.75,0.64289 0,-2.61664 c 0,-1.43915 1.104347,-7.22543 2.454104,-12.85841 l 2.454104,-10.24177 3.026263,-7.76271 C 29.725509,812.26692 41.395222,794.83259 59.909744,777.12416 69.989774,767.483 76.909146,762.31739 88.7036,755.62827 l 9.228587,-5.2339 0.673327,0.7339 c 0.37033,0.40365 2.136116,5.00891 3.923966,10.23391 1.78786,5.225 3.75012,10.02353 4.36058,10.6634 l 1.10994,1.16341 9.18536,-7.16341 c 5.05194,-3.93987 9.21444,-7.50782 9.25,-7.92878 0.0774,-0.91687 -7.05316,-11.96184 -8.31064,-12.87282 l -0.88095,-0.63819 0.63776,-1.03191 0.63775,-1.03192 9.24036,-2.04349 c 10.92634,-2.41635 20.39349,-4.11629 22.92402,-4.11629 l 1.81634,0 -0.0545,1.25 -0.0545,1.25 -4.38754,3 c -8.21075,5.61415 -19.65065,14.71996 -20.15969,16.04649 l -0.50742,1.3223 4.08182,6.01073 c 2.24501,3.30591 4.08183,6.62536 4.08183,7.37656 l 0,1.36582 -4.75904,1.21971 c -2.61747,0.67083 -8.24221,2.73389 -12.49942,4.58458 l -7.74037,3.36487 -2.01534,-4.55599 -2.01533,-4.55599 -2.23525,2.01579 c -4.19481,3.78295 -15.679421,12.30794 -19.38399,14.38867 -2.033309,1.14204 -11.329531,8.00294 -20.65827,15.24645 -16.346252,12.69241 -22.894087,17.76067 -31.225941,24.17001 -2.144926,1.65 -6.069733,5.00853 -8.721792,7.4634 l -4.821927,4.46339 9.395087,9.1243 c 5.167299,5.01837 11.372049,10.45205 13.788336,12.07484 L 47,865.93865 l -0.04545,4.21177 c -0.025,2.31647 -0.1375,10.28676 -0.25,17.71176 l -0.20455,13.5 -6.916667,0 -6.916666,0 -0.340441,1.02132 c -0.187243,0.56173 0.01014,5.39923 0.438632,10.75 0.428491,5.35078 1.106689,14.07893 1.507108,19.39589 L 35,942.1966 l 0.772846,0.7723 0.772847,0.77231 9.53123,-3.30211 c 5.242177,-1.81615 9.69296,-3.13893 9.89063,-2.93951 0.19767,0.19942 2.02166,3.51259 4.05331,7.36259 l 3.69391,7 5.344249,7 c 2.939337,3.85 7.391013,9.00619 9.892614,11.45821 L 83.5,974.7786 l 0,1.26504 c 0,1.81028 -4.252014,10.31854 -5.156706,10.31854 -0.416996,0 -4.830314,-3.58577 -9.807372,-7.96837 z M 276.08825,850.61218 c -0.97735,-3.1625 -3.68556,-9.8 -6.01825,-14.75 l -4.24124,-9 -6.0712,-8 c -3.33916,-4.4 -7.46313,-9.32169 -9.16438,-10.93709 -1.70125,-1.6154 -3.09318,-3.45974 -3.09318,-4.09854 l 0,-1.16144 8.75,-2.27316 c 4.8125,-1.25024 9.10135,-2.59225 9.53079,-2.98225 l 0.78078,-0.70909 -15.01319,-11.23624 c -8.25726,-6.17994 -15.26015,-11.63582 -15.56198,-12.12419 l -0.54878,-0.88795 5.21462,-5.79502 c 2.86804,-3.18727 5.56363,-5.93888 5.9902,-6.1147 1.25537,-0.51742 14.71403,9.86852 23.32594,18.00043 l 7.96839,7.52425 -1.903,4.2201 -1.903,4.2201 -1.91098,1.33851 -1.91099,1.3385 0.59984,1.88995 0.59985,1.88994 12.82934,9.69894 c 7.05614,5.33442 13.27579,9.69895 13.82144,9.69895 0.54566,0 1.9454,1.01474 3.11054,2.25498 l 2.11845,2.25498 3.61679,9.36507 3.61679,9.36507 -0.52953,1.37995 -0.52954,1.37995 -1.28139,0.0136 c -0.70476,0.007 -7.30176,2.25747 -14.66,5 -7.35824,2.74251 -13.91356,4.9864 -14.56738,4.9864 l -1.18876,0 -1.77699,-5.75 z M 216.5,781.92805 c -2.475,-1.28756 -8.55,-3.7691 -13.5,-5.51453 l -9,-3.17352 -9.5,-1.43302 -9.5,-1.43301 -7.60754,-0.006 -7.60755,-0.006 -0.62135,-5.94477 c -0.34174,-3.26963 -0.92197,-10.89446 -1.2894,-16.94407 l -0.66805,-10.99929 2.54134,-0.63784 2.54134,-0.63784 12.67349,1.08305 12.67349,1.08305 1.96213,1.05011 c 1.07917,0.57755 6.78613,4.86902 12.68212,9.53658 5.89599,4.66758 13.19498,10.38201 16.21998,12.69876 3.025,2.31674 7.81956,6.07552 10.65458,8.35284 l 5.15458,4.14059 -5.05624,5.60941 -5.05624,5.60942 -1.59834,-0.0466 c -0.87909,-0.0256 -3.62334,-1.10002 -6.09834,-2.38757 z"
         id="path3013"
         inkscape:connector-curvature="0" />
      <path
         style="fill:#5fb666"
         d="m 143.5,1040.6623 c -11.4452,-1.6478 -33.10542,-7.8133 -40.33295,-11.4805 l -3.832951,-1.9449 0.523771,-1.1874 c 0.28808,-0.653 1.61076,-3.7852 2.93931,-6.9603 1.32855,-3.1752 2.71192,-6.0695 3.07416,-6.4317 l 0.65862,-0.6586 3.23502,2.9626 c 1.77926,1.6294 4.17417,3.7395 5.32203,4.6891 l 2.087,1.7265 26.413,-3.5019 c 14.52714,-1.926 28.04033,-3.7251 30.02931,-3.9979 l 3.61631,-0.496 0.59389,6.7404 c 0.32664,3.7073 0.90336,9.5978 1.2816,13.0901 l 0.68771,6.3495 -1.39791,0.8923 -1.39792,0.8923 -15.5,-0.1618 c -8.525,-0.089 -16.625,-0.3239 -18,-0.5218 z m 72,-9.0805 c 0,-1.1736 6.46354,-16.1425 8.97547,-20.7862 l 2.19973,-4.0665 7.6624,-1.2221 c 4.21432,-0.6722 10.05981,-1.6948 12.98999,-2.2726 l 5.32758,-1.0504 0.61925,0.6193 0.61924,0.6192 -1.89275,5.5684 -1.89274,5.5684 -3.05409,2.3027 c -5.14246,3.8774 -13.66476,8.6009 -21.89269,12.1341 -8.13522,3.4935 -9.66139,3.9019 -9.66139,2.5857 z m -21.60482,-23.8497 c -0.38672,-1.5784 -1.11349,-3.1398 -1.61504,-3.4697 l -0.91191,-0.5997 6.26321,-1.7574 c 3.44476,-0.9665 6.92323,-2.01061 7.72993,-2.32016 l 1.46672,-0.56284 -0.67857,1.0979 -0.67856,1.098 1.83823,0.5834 c 2.13352,0.6772 6.19081,4.2567 6.19081,5.4618 l 0,0.8234 -5.75,0.6709 c -3.1625,0.3689 -7.41538,0.9349 -9.45084,1.2576 l -3.70085,0.5868 -0.70313,-2.87 z m 61.35957,-5.9485 -0.57859,-0.5786 2.03654,-5.17141 c 1.1201,-2.84427 2.88046,-7.07901 3.91192,-9.41051 1.03146,-2.33151 1.87538,-4.70011 1.87538,-5.26357 0,-0.56346 0.40158,-1.80586 0.8924,-2.7609 0.49082,-0.95504 1.38117,-2.97393 1.97856,-4.48643 l 1.08616,-2.75 1.04391,0 1.04391,0 5.49943,8.52482 5.49944,8.52481 -0.94497,1.72519 c -0.51974,0.94885 -2.89209,3.59803 -5.27191,5.88708 L 269,1000.186 l -4,1.0825 c -4.38143,1.1857 -8.83899,1.4214 -9.74525,0.5151 z M 66.825524,976.89279 56,967.39872 l -1.048702,1.39757 c -2.574085,3.43039 -11.426587,12.56285 -12.150221,12.53447 -0.440592,-0.0173 -1.518259,-1.02979 -2.394816,-2.25 l -1.593739,-2.21858 -1.148821,-8.97173 -1.148821,-8.97172 1.385569,-1.38557 1.38557,-1.38557 6.35699,-0.39628 c 3.496345,-0.21795 8.440913,-0.8767 10.987929,-1.46388 2.547016,-0.58718 5.472016,-0.92308 6.5,-0.74643 L 65,953.86218 l 3.918612,5 c 2.155237,2.75 6.401563,7.57276 9.43628,10.71724 l 5.517669,5.71724 -2.387955,5.09839 c -1.313375,2.80411 -2.713215,5.2994 -3.110756,5.54509 l -0.722801,0.44672 -10.825525,-9.49407 z M 263.04215,963.02432 C 261.64397,960.6385 260.5,958.36463 260.5,957.97127 c 0,-0.39336 1.05239,-2.26393 2.33865,-4.15683 l 2.33865,-3.44163 0.82167,0.74469 0.82168,0.74468 -0.66952,-1.16938 -0.66951,-1.16938 1.25919,-1.35443 c 0.69255,-0.74494 1.40777,-2.01446 1.58937,-2.82116 0.1816,-0.8067 0.70113,-1.69598 1.15451,-1.97619 0.82491,-0.50982 1.01531,-1.08526 1.01531,-3.06848 l 0,-1.05901 1.16994,0.72306 1.16994,0.72306 -0.63856,-1.66405 -0.63855,-1.66404 0.5734,-1.49426 0.5734,-1.49425 0.78231,0.48349 0.78231,0.4835 -0.0446,-1.23924 c -0.0245,-0.68158 0.0332,-2.13924 0.12822,-3.23924 l 0.17285,-2 1.07902,1.5 1.07901,1.5 -0.59344,-1.82946 -0.59344,-1.82947 0.58783,-2.34208 0.58782,-2.34207 4.66129,-0.99924 c 2.5637,-0.54958 9.38628,-1.50335 15.16128,-2.1195 5.775,-0.61615 12.02664,-1.35922 13.89253,-1.65128 l 3.39254,-0.53101 -0.61056,3.82206 c -0.33581,2.10213 -2.05033,8.43455 -3.81004,14.07205 l -3.19948,10.25 -1.08249,-0.004 c -0.59538,-0.002 -5.49959,-3.17929 -10.89826,-7.06066 l -9.81577,-7.05702 -1.54243,0.31066 -1.54243,0.31066 -2.48337,6.5 c -1.36586,3.575 -2.8555,7.4 -3.31032,8.5 -0.45481,1.1 -2.32611,5.93587 -4.15843,10.74639 l -3.33149,8.74638 -1.20785,0.004 -1.20784,0.004 -2.54216,-4.33786 z M 21.493889,944.84611 C 17.338183,933.91577 12.993886,915.96075 12.30351,906.86218 l -0.30351,-4 8.264268,-0.85151 8.264267,-0.85152 1.304009,0.5004 1.304008,0.50039 1.785814,20.1637 c 0.982198,11.09003 1.626474,20.30522 1.431724,20.4782 -1.268583,1.12676 -9.05305,4.56034 -10.339003,4.56034 l -1.564589,0 -0.956609,-2.51607 z m 10.545702,-44.41987 -0.649815,-1.05142 -0.44767,-17.38691 -0.447671,-17.3869 4.529194,-1.14046 4.529194,-1.14047 2.223589,1.15666 c 1.222973,0.63616 2.933625,1.89367 3.801448,2.79447 l 1.57786,1.6378 -0.455016,16.47659 -0.455016,16.47658 -6.778141,0.30774 -6.77814,0.30774 -0.649816,-1.05142 z m 267.455999,-8.81406 c -0.005,-0.79233 7.62234,-20.68887 8.91249,-23.25 0.41558,-0.825 1.37952,-3.6375 2.14208,-6.25 2.55234,-8.74421 3.44722,-6.53122 5.06675,12.52984 l 1.22286,14.39235 -0.6385,1.6639 -0.6385,1.66391 -8.03139,0 -8.03138,0 -0.004,-0.75 z M 12.5,866.88092 c 0,-1.36469 1.162702,-7.43969 2.583783,-13.5 l 2.583783,-11.01874 0.798125,0 c 0.438969,0 2.927102,1.95474 5.529185,4.34386 l 4.731059,4.34386 0.699627,6.75944 0.699627,6.75944 -1.062595,0.34215 c -3.534871,1.13823 -15.384277,4.45125 -15.920407,4.45125 l -0.642187,0 0,-2.48126 z m 274.44107,-14.61409 -0.67697,-1.09536 1.01829,-2.15464 c 2.43355,-5.14927 5.04638,-11.44725 6.28717,-15.15465 0.7363,-2.2 1.69686,-4.4275 2.13458,-4.95 0.43772,-0.5225 0.79586,-1.72786 0.79586,-2.67857 l 0,-1.72857 1.61885,-1.61886 1.61886,-1.61885 1.76975,1.6016 1.76975,1.6016 3.6114,9.43512 c 1.98626,5.18931 3.61139,9.83608 3.61139,10.32613 l 0,0.89102 -11.03539,4.11969 c -12.55385,4.68655 -11.63359,4.46432 -12.52354,3.02434 z M 19.909965,838.0785 c 0.354776,-1.53103 1.857405,-5.35603 3.339176,-8.5 l 2.69413,-5.71632 0.340161,4.92154 0.340162,4.92153 -3.679337,3.57847 -3.679337,3.57846 0.645045,-2.78368 z M 260.41147,819.61218 c -2.38085,-3.1625 -6.33523,-7.90219 -8.78751,-10.53263 l -4.45869,-4.78264 0.91736,-0.8347 c 0.50456,-0.45908 4.69978,-1.83535 9.32274,-3.05837 4.62295,-1.22302 8.98129,-2.44467 9.6852,-2.71479 l 1.27984,-0.49112 2.3148,2.68641 c 1.27313,1.47753 7.15229,6.30968 13.06479,10.73811 5.9125,4.42843 10.75,8.4315 10.75,8.89571 l 0,0.84402 -2.36561,0 c -1.30109,0 -7.34929,1.125 -13.44046,2.5 -6.09117,1.375 -11.72258,2.5 -12.51425,2.5 l -1.43939,0 -4.32882,-5.75 z M 75,783.27371 c -4.4,-3.26822 -9.125,-6.42419 -10.5,-7.01326 l -2.5,-1.07104 4.972431,-4.5274 c 6.097926,-5.55217 13.583743,-10.66578 23.769615,-16.23718 l 7.742045,-4.23469 0.851553,2.33602 c 0.468353,1.28481 2.122926,5.93602 3.676836,10.33602 1.5539,4.4 3.26341,8.57338 3.7989,9.27417 0.53549,0.70079 0.797,1.39674 0.58112,1.54657 -0.21587,0.14982 -4.97092,3.73895 -10.56676,7.97583 L 86.651481,789.36218 84.82574,789.28906 83,789.21593 75,783.27371 z m 145.5,0.0885 0,-1 -1.4055,0 c -0.77302,0 -3.13552,-0.84769 -5.25,-1.88377 -2.11447,-1.03607 -5.082,-2.37642 -6.5945,-2.97856 l -2.75,-1.09479 0,-1.51264 c 0,-1.65075 5.75407,-15.23315 7.34067,-17.32757 l 0.98279,-1.29734 0.58827,0.79986 c 0.32355,0.43992 3.27795,2.82373 6.56533,5.29734 6.10812,4.59609 8.21718,6.2526 11.62882,9.13356 l 1.93746,1.63609 -5.30873,5.61391 -5.30874,5.61391 -1.21294,0 -1.21293,0 0,-1 z m -111.25837,-4.97582 -1.56175,-3.97583 5.46941,-4.72159 c 3.00817,-2.59687 6.45519,-5.40184 7.66005,-6.23325 1.20486,-0.83142 2.81923,-2.12651 3.58749,-2.87798 l 1.39682,-1.36632 1.75195,1.82539 c 0.96358,1.00397 3.19046,4.4129 4.94864,7.5754 l 3.19668,5.75 -1.99,0 c -1.09451,0 -6.47653,1.8 -11.96006,4 -5.48353,2.2 -10.18772,4 -10.45376,4 -0.26605,0 -1.18651,-1.78912 -2.04547,-3.97582 z m 50.84881,-14.27418 c -0.3128,-3.4375 -0.92665,-11.14126 -1.3641,-17.11947 l -0.79536,-10.86947 14.03451,0.44089 14.03451,0.44088 3.25,1.70427 3.25,1.70426 0,1.32069 c 0,0.72638 -1.85177,5.10232 -4.11505,9.72432 -2.26328,4.622 -5.16352,10.76613 -6.44497,13.65363 l -2.32992,5.25 -9.47544,0 -9.47543,0 -0.56875,-6.25 z"
         id="path3011"
         inkscape:connector-curvature="0" />
      <path
         style="fill:#349c38"
         d="m 133,1038.2024 c -4.95,-1.0687 -13.82405,-3.5451 -19.7201,-5.5031 l -10.72011,-3.5601 -1.15234,-1.3885 -1.15234,-1.3885 1.17844,-1.4199 1.17843,-1.42 7.69401,-0.6273 c 4.23171,-0.3451 10.61901,-1.0306 14.19401,-1.5234 3.575,-0.4928 10.325,-1.3949 15,-2.0047 4.675,-0.6098 11.3062,-1.6166 14.73599,-2.2374 l 6.23599,-1.1287 0.61184,0.6119 0.61184,0.6118 -5.09783,9.7418 c -2.80381,5.358 -5.09783,10.2909 -5.09783,10.9619 l 0,1.22 -1.58179,0.607 c -2.52037,0.9672 -7.26208,0.532 -16.91821,-1.5528 z m 83.2861,-8.0902 c 0.56704,-0.6875 2.26969,-4.4 3.78367,-8.25 1.51398,-3.85 2.88712,-7.1695 3.05143,-7.3767 0.1643,-0.2071 2.5167,1.4804 5.22755,3.75 2.71085,2.2697 5.45542,4.1267 6.09905,4.1267 l 1.17023,0 -0.67079,1.0853 c -0.36893,0.597 -3.99739,2.622 -8.06324,4.5 l -7.39245,3.4147 -2.11822,0 -2.11822,0 1.03099,-1.25 z M 256.5,1000.1744 c 0,-1.66823 10.34696,-27.80057 11,-27.78166 0.67998,0.0197 11,15.74624 11,16.76275 0,0.44543 -2.01893,2.88707 -4.48652,5.42586 l -4.48652,4.616 -2.76348,0.51502 c -1.51991,0.28326 -4.45098,0.79073 -6.51348,1.12773 l -3.75,0.6127 0,-1.2784 z M 75,982.69369 c -1.65,-1.40132 -5.653108,-4.86167 -8.895796,-7.68968 -3.242688,-2.82801 -6.636638,-5.75794 -7.542111,-6.51097 l -1.646315,-1.36914 4.81521,-5.13086 4.81521,-5.13086 2.045226,2.5 c 1.124874,1.375 4.784737,5.58409 8.133029,9.35354 l 6.087804,6.85353 -2.406128,4.83615 L 78,985.24154 75,982.69369 z m -34.766006,-4.54235 -1.531053,-3.28916 -0.35147,-8.375 L 38,958.11219 l 2.216119,-0.83025 2.216119,-0.83024 6.033881,5.04179 6.033881,5.04179 0,1.02979 c 0,1.01439 -10.622981,13.02343 -12.018174,13.58627 l -0.716779,0.28916 -1.531053,-3.28916 z M 20.536683,941.73068 c -1.158858,-3.09733 -1.946993,-5.79152 -1.751411,-5.9871 0.195581,-0.19559 2.530367,1.66963 5.188412,4.14492 2.658046,2.47528 4.651349,4.60698 4.429563,4.7371 -2.54277,1.49181 -4.961649,2.73658 -5.317829,2.73658 -0.242946,0 -1.389877,-2.53418 -2.548735,-5.6315 z M 300.5,943.34036 c -7.35446,-5.86885 -16.0513,-11.97818 -17.05135,-11.97818 -0.62695,0 -2.44688,-0.93064 -4.04428,-2.06809 l -2.90437,-2.0681 0,-1.7191 0,-1.7191 1.93048,-0.14542 c 6.83842,-0.51512 29.04267,-3.55671 31.31952,-4.29021 l 2.75,-0.88594 -0.0441,3.19798 c -0.0497,3.59911 -2.14875,12.22419 -3.24075,13.3162 -0.39335,0.39331 -0.71515,1.73856 -0.71515,2.98943 l 0,2.27432 -1,0.61803 -1,0.61803 0,1.94099 0,1.94098 -1.75,-0.0134 -1.75,-0.0134 -2.5,-1.99499 z M 32.440389,895.61218 c -0.03279,-2.6125 -0.408566,-6.86853 -0.835068,-9.45785 l -0.775456,-4.70785 0.585067,-0.89225 L 32,879.66197 36,879.0084 c 2.2,-0.35946 5.4625,-0.92799 7.25,-1.26339 l 3.25,-0.60983 0,11.6135 0,11.6135 -7,0 -7,0 -0.05961,-4.75 z m -19.490742,-31 c 0.369727,-2.0625 1.5823,-7.6875 2.694609,-12.5 l 2.022379,-8.75 0.688478,0 c 0.378663,0 2.816171,1.95343 5.416683,4.34096 L 28.5,852.0441 l 0,5.99898 0,5.99898 -4.25,1.2642 c -2.3375,0.69531 -5.283674,1.66734 -6.547053,2.16006 -1.263379,0.49272 -3.00096,0.89586 -3.861291,0.89586 l -1.564238,0 0.672229,-3.75 z M 287.5,851.87855 c 0,-0.71968 9.99491,-25.63835 11.14711,-27.79125 l 0.99237,-1.85425 1.58516,1.31456 c 1.6862,1.39835 3.16892,4.56241 6.79078,14.49118 l 2.25313,6.17662 -2.63428,0.97312 c -1.44885,0.53521 -5.33427,1.9542 -8.63427,3.1533 -3.3,1.19909 -6.78139,2.59421 -7.73643,3.10026 -1.87789,0.99504 -3.76357,1.21373 -3.76357,0.43646 z m -32.70996,-39.98226 -6.20943,-7.4659 0.70969,-0.42379 c 0.39034,-0.23308 3.6347,-1.19063 7.2097,-2.12789 3.575,-0.93725 7.52578,-2.19504 8.77951,-2.79508 l 2.27951,-1.091 1.54881,1.54881 1.54881,1.54881 -4.58835,9.13597 c -2.5236,5.02478 -4.69646,9.13596 -4.82859,9.13596 -0.13213,0 -3.03447,-3.35965 -6.44966,-7.46589 z M 83.007753,788.37472 c -0.767944,-1.24256 -16.634567,-12.55481 -18.465441,-13.1651 l -1.356709,-0.45224 3.407199,-3.27196 c 4.031019,-3.87102 18.362555,-13.73704 25.320507,-17.43097 l 4.913309,-2.60844 0.724152,0.44755 c 0.398283,0.24615 2.423632,5.2176 4.50077,11.04766 l 3.77663,10.60011 -0.96942,0.66042 c -3.70471,2.52387 -17.357453,13.34931 -17.858767,14.16046 -0.793595,1.28406 -3.201704,1.29161 -3.99223,0.0125 z m 78.089907,-21.26254 c -0.27114,-1.7875 -0.7548,-8.39955 -1.07482,-14.69345 -0.32001,-6.29389 -0.84235,-12.48139 -1.16075,-13.75 l -0.57891,-2.30655 5.35841,0.0173 c 2.94713,0.01 9.52118,0.45589 14.60901,0.9919 l 9.25059,0.97457 1.99941,1.24865 c 2.62513,1.63942 2.55365,2.26968 -1.11602,9.84034 -1.71349,3.53496 -4.62331,9.68971 -6.46627,13.67721 l -3.35084,7.25 -8.48842,0 -8.48842,0 -0.49297,-3.25 z"
         id="path3009"
         inkscape:connector-curvature="0" />
    </g>
    <path
       sodipodi:type="arc"
       style="fill:#0b230f;fill-opacity:1"
       id="path3027"
       sodipodi:cx="-83"
       sodipodi:cy="-5"
       sodipodi:rx="171"
       sodipodi:ry="174"
       d="m 88,-5 a 171,174 0 1 1 -342,0 171,174 0 1 1 342,0 z"
       transform="matrix(0.6920521,0,0,0.70689655,216.78123,892.89667)" />
    <text
       xml:space="preserve"
       style="font-size:40px;font-style:normal;font-weight:normal;line-height:125%;letter-spacing:0px;word-spacing:0px;fill:#a4e58a;fill-opacity:1;stroke:none;font-family:Sans"
       x="76"
       y="880.36218"
       id="text3031"
       sodipodi:linespacing="125%"><tspan
         sodipodi:role="line"
         id="tspan3033"
         x="76"
         y="880.36218"
         style="font-size:64px;font-style:normal;font-variant:normal;font-weight:normal;font-stretch:normal;fill:#a4e58a;fill-opacity:1;font-family:Fredoka One;-inkscape-font-specification:Fredoka One">lehen</tspan></text>
    <text
       xml:space="preserve"
       style="font-size:37.84392548px;font-style:normal;font-weight:normal;line-height:125%;letter-spacing:0px;word-spacing:0px;fill:#629155;fill-opacity:1;stroke:none;font-family:Sans"
       x="77.155273"
       y="940.36218"
       id="text3035"
       sodipodi:linespacing="125%"><tspan
         sodipodi:role="line"
         id="tspan3037"
         x="77.155273"
         y="940.36218"
         style="font-size:68.11907196px;font-style:normal;font-variant:normal;font-weight:normal;font-stretch:normal;fill:#629155;fill-opacity:1;font-family:Fredoka One;-inkscape-font-specification:Fredoka One">hitza</tspan></text>
  </g>
</svg>
